<svg xmlns="http://www.w3.org/2000/svg" xmlns:xlink="http://www.w3.org/1999/xlink" width="825" zoomAndPan="magnify" viewBox="0 0 618.75 618.749998" height="825" preserveAspectRatio="xMidYMid meet" version="1.0"><defs><clipPath id="b8edc51a38"><path d="M 0 0 L 618.5 0 L 618.5 618.5 L 0 618.5 Z M 0 0 " clip-rule="nonzero"/></clipPath><clipPath id="369f6190ea"><path d="M 0 0 L 618.15625 0 L 618.15625 618.15625 L 0 618.15625 Z M 0 0 " clip-rule="nonzero"/></clipPath><clipPath id="7d5de6a53b"><path d="M 309.078125 0 C 138.378906 0 0 138.378906 0 309.078125 C 0 479.777344 138.378906 618.15625 309.078125 618.15625 C 479.777344 618.15625 618.15625 479.777344 618.15625 309.078125 C 618.15625 138.378906 479.777344 0 309.078125 0 Z M 309.078125 0 " clip-rule="nonzero"/></clipPath><clipPath id="46aec5d72f"><path d="M 0 0 L 618.15625 0 L 618.15625 618.15625 L 0 618.15625 Z M 0 0 " clip-rule="nonzero"/></clipPath><clipPath id="a57994241d"><path d="M 309.078125 0 C 138.378906 0 0 138.378906 0 309.078125 C 0 479.777344 138.378906 618.15625 309.078125 618.15625 C 479.777344 618.15625 618.15625 479.777344 618.15625 309.078125 C 618.15625 138.378906 479.777344 0 309.078125 0 Z M 309.078125 0 " clip-rule="nonzero"/></clipPath><clipPath id="86b38f35ce"><rect x="0" width="619" y="0" height="619"/></clipPath><clipPath id="601d6c711b"><path d="M 0 0 L 618.148438 0 L 618.148438 618.148438 L 0 618.148438 Z M 0 0 " clip-rule="nonzero"/></clipPath><clipPath id="157f68187f"><path d="M 309.074219 0 C 138.378906 0 0 138.378906 0 309.074219 C 0 479.769531 138.378906 618.148438 309.074219 618.148438 C 479.769531 618.148438 618.148438 479.769531 618.148438 309.074219 C 618.148438 138.378906 479.769531 0 309.074219 0 Z M 309.074219 0 " clip-rule="nonzero"/></clipPath><clipPath id="9a14c24476"><path d="M 56 379 L 574 379 L 574 576 L 56 576 Z M 56 379 " clip-rule="nonzero"/></clipPath><clipPath id="fb17246c8b"><path d="M 56.828125 17.488281 L 610.039062 68.148438 L 561.292969 600.453125 L 8.082031 549.796875 Z M 56.828125 17.488281 " clip-rule="nonzero"/></clipPath><clipPath id="382519d6d4"><path d="M 56.828125 17.488281 L 610.039062 68.148438 L 561.292969 600.453125 L 8.082031 549.796875 Z M 56.828125 17.488281 " clip-rule="nonzero"/></clipPath><clipPath id="7635ed51a5"><path d="M 44 42 L 559 42 L 559 235 L 44 235 Z M 44 42 " clip-rule="nonzero"/></clipPath><clipPath id="89b58fce48"><path d="M 56.828125 17.488281 L 610.039062 68.148438 L 561.292969 600.453125 L 8.082031 549.796875 Z M 56.828125 17.488281 " clip-rule="nonzero"/></clipPath><clipPath id="ce9397e216"><path d="M 56.828125 17.488281 L 610.039062 68.148438 L 561.292969 600.453125 L 8.082031 549.796875 Z M 56.828125 17.488281 " clip-rule="nonzero"/></clipPath><clipPath id="acd9d9ef7c"><path d="M 253 209 L 493.796875 209 L 493.796875 502 L 253 502 Z M 253 209 " clip-rule="nonzero"/></clipPath></defs><g clip-path="url(#b8edc51a38)"><path fill="#ffffff" d="M 0 0 L 618.5 0 L 618.5 618.5 L 0 618.5 Z M 0 0 " fill-opacity="1" fill-rule="nonzero"/></g><g clip-path="url(#369f6190ea)"><g clip-path="url(#7d5de6a53b)"><g transform="matrix(1, 0, 0, 1, 0, -0.000000000000044147)"><g clip-path="url(#86b38f35ce)"><g clip-path="url(#46aec5d72f)"><g clip-path="url(#a57994241d)"><path fill="#ffffff" d="M 0 0 L 618.15625 0 L 618.15625 618.15625 L 0 618.15625 Z M 0 0 " fill-opacity="1" fill-rule="nonzero"/></g></g></g></g></g></g><g clip-path="url(#601d6c711b)"><g clip-path="url(#157f68187f)"><path stroke-linecap="butt" transform="matrix(0.749697, 0, 0, 0.749697, 0.00000075, 0.0000199919)" fill="none" stroke-linejoin="miter" d="M 412.26548 -0.0000266667 C 184.579763 -0.0000266667 -0.0000010004 184.579737 -0.0000010004 412.265454 C -0.0000010004 639.951172 184.579763 824.530936 412.26548 824.530936 C 639.951197 824.530936 824.530961 639.951172 824.530961 412.265454 C 824.530961 184.579737 639.951197 -0.0000266667 412.26548 -0.0000266667 Z M 412.26548 -0.0000266667 " stroke="#000000" stroke-width="10" stroke-opacity="1" stroke-miterlimit="4"/></g></g><g clip-path="url(#9a14c24476)"><g clip-path="url(#fb17246c8b)"><g clip-path="url(#382519d6d4)"><path fill="#255702" d="M 73.804688 400.070312 L 56.632812 398.496094 C 90.429688 493.109375 176.582031 564.484375 283.210938 574.246094 C 369.742188 582.171875 450.164062 548.035156 504.324219 488.550781 L 509.359375 491.347656 C 517.246094 486.230469 528.925781 494.511719 548.726562 459.085938 C 552.003906 453.339844 579.308594 403.488281 572.8125 400.144531 C 567.761719 397.550781 554.1875 424.960938 551.449219 429.378906 C 546.394531 438.054688 541.066406 446.707031 536.007812 455.449219 C 535.113281 456.949219 533.292969 457.332031 531.792969 456.4375 C 530.296875 455.542969 529.707031 453.703125 530.601562 452.207031 C 538.230469 439.4375 545.78125 426.730469 553.203125 413.945312 L 562.613281 398.25 C 563.523438 396.546875 563.171875 394.382812 561.46875 393.472656 C 559.785156 392.355469 557.605469 392.910156 556.691406 394.613281 L 540.65625 421.179688 L 536.785156 427.417969 C 531.75 435.890625 525.015625 447.160156 524.367188 448.269531 C 523.472656 449.765625 521.632812 450.355469 520.132812 449.460938 C 518.636719 448.566406 518.066406 446.523438 518.941406 445.230469 L 531.605469 423.992188 L 535.257812 417.867188 L 551.15625 391.289062 C 552.070312 389.585938 551.511719 387.40625 549.808594 386.496094 C 548.125 385.378906 545.945312 385.933594 545.03125 387.636719 L 535.625 403.335938 C 527.863281 416.089844 520.257812 428.585938 512.699219 441.359375 C 511.808594 442.859375 509.78125 443.222656 508.46875 442.550781 C 506.96875 441.660156 506.402344 439.613281 507.289062 438.183594 C 512.546875 429.527344 517.65625 420.996094 522.914062 412.339844 C 525.46875 407.695312 543.132812 382.859375 538.546875 379.691406 C 532.460938 375.628906 501.460938 423.015625 497.847656 428.730469 C 476.027344 462.941406 488.832031 469.40625 488.167969 478.894531 L 490.585938 480.285156 C 439.625 534.84375 364.6875 566.113281 284.558594 558.773438 C 186.855469 549.828125 107.191406 485.644531 73.742188 399.996094 Z M 73.804688 400.070312 " fill-opacity="1" fill-rule="evenodd"/></g></g></g><g clip-path="url(#7635ed51a5)"><g clip-path="url(#89b58fce48)"><g clip-path="url(#ce9397e216)"><path fill="#255702" d="M 330.34375 59.554688 C 428.253906 68.519531 507.730469 132.480469 541.160156 218.332031 L 558.535156 219.925781 C 524.765625 125.039062 438.613281 53.667969 331.777344 43.882812 C 242.179688 35.679688 158.71875 73.039062 104.578125 136.789062 L 101.65625 134.941406 C 94.175781 140.09375 81.601562 130.355469 61.445312 155.375 C 44.558594 176.226562 39.632812 206.761719 49.242188 222.617188 C 53.871094 229.84375 60.503906 233.957031 69.175781 234.542969 C 87.765625 235.628906 112.292969 216.851562 122.734375 192.109375 C 135.410156 162.488281 120.757812 155.925781 121.78125 147.019531 L 118.277344 144.773438 C 169.203125 86.089844 246.878906 51.910156 330.34375 59.554688 Z M 330.34375 59.554688 " fill-opacity="1" fill-rule="evenodd"/></g></g></g><g clip-path="url(#acd9d9ef7c)"><path fill="#4ea601" d="M 493.59375 285.609375 C 493.253906 281.734375 492.535156 277.929688 491.441406 274.195312 C 490.347656 270.460938 488.898438 266.871094 487.097656 263.421875 C 485.292969 259.976562 483.167969 256.738281 480.726562 253.710938 C 478.28125 250.683594 475.566406 247.925781 472.578125 245.433594 C 476.492188 237.113281 484.078125 209.40625 469.992188 209.765625 C 469.542969 209.816406 469.105469 209.90625 468.675781 210.042969 C 468.25 210.179688 467.835938 210.355469 467.441406 210.570312 C 467.046875 210.789062 466.679688 211.039062 466.335938 211.328125 C 465.992188 211.621094 465.679688 211.9375 465.398438 212.289062 C 465.117188 212.640625 464.871094 213.015625 464.664062 213.414062 C 464.457031 213.8125 464.289062 214.230469 464.164062 214.660156 C 464.039062 215.09375 463.957031 215.53125 463.917969 215.980469 C 463.878906 216.429688 463.882812 216.875 463.929688 217.324219 C 464.394531 221.949219 464.117188 226.53125 463.105469 231.070312 C 462.09375 235.609375 460.394531 239.871094 458.007812 243.863281 C 457.800781 244.230469 457.625 244.613281 457.488281 245.011719 C 457.351562 245.410156 457.25 245.820312 457.1875 246.238281 C 457.128906 246.652344 457.105469 247.074219 457.121094 247.496094 C 457.136719 247.917969 457.1875 248.335938 457.28125 248.746094 C 457.375 249.15625 457.503906 249.558594 457.671875 249.945312 C 457.835938 250.332031 458.039062 250.703125 458.273438 251.054688 C 458.507812 251.40625 458.769531 251.730469 459.066406 252.03125 C 459.359375 252.335938 459.679688 252.605469 460.027344 252.851562 C 482.679688 269.816406 491.148438 299.195312 455.476562 326.550781 C 454.867188 327.046875 454.359375 327.628906 453.949219 328.296875 C 453.539062 328.964844 453.25 329.683594 453.085938 330.453125 C 452.925781 331.222656 452.894531 331.996094 452.996094 332.773438 C 453.097656 333.550781 453.324219 334.289062 453.679688 334.992188 C 464.773438 358.90625 460.019531 383.519531 417.4375 385.019531 C 416.652344 385.066406 415.898438 385.238281 415.171875 385.542969 C 414.445312 385.847656 413.792969 386.261719 413.207031 386.792969 C 412.625 387.320312 412.148438 387.933594 411.777344 388.625 C 411.40625 389.320312 411.160156 390.054688 411.039062 390.832031 C 410.386719 395.082031 393.890625 493.511719 282.160156 487.089844 C 332.308594 466.234375 364.46875 422.03125 384.910156 377.183594 C 387.792969 376.667969 390.640625 376.007812 393.453125 375.203125 C 396.265625 374.398438 399.03125 373.453125 401.75 372.367188 C 404.464844 371.28125 407.121094 370.058594 409.714844 368.703125 C 412.304688 367.347656 414.824219 365.863281 417.265625 364.25 C 419.707031 362.640625 422.0625 360.90625 424.328125 359.054688 C 426.59375 357.203125 428.757812 355.242188 430.824219 353.167969 C 432.890625 351.097656 434.84375 348.925781 436.691406 346.65625 C 438.535156 344.382812 440.261719 342.023438 441.867188 339.578125 C 442.078125 339.1875 442.25 338.777344 442.382812 338.351562 C 442.515625 337.925781 442.609375 337.492188 442.65625 337.050781 C 442.703125 336.605469 442.710938 336.164062 442.671875 335.71875 C 442.632812 335.273438 442.550781 334.839844 442.429688 334.410156 C 442.304688 333.980469 442.140625 333.570312 441.9375 333.171875 C 441.734375 332.777344 441.496094 332.402344 441.21875 332.054688 C 440.941406 331.703125 440.632812 331.386719 440.292969 331.097656 C 439.957031 330.804688 439.589844 330.550781 439.203125 330.335938 C 438.816406 330.117188 438.410156 329.9375 437.984375 329.796875 C 437.5625 329.660156 437.128906 329.5625 436.6875 329.507812 C 436.242188 329.453125 435.800781 329.441406 435.355469 329.472656 C 434.910156 329.503906 434.472656 329.578125 434.042969 329.695312 C 433.613281 329.8125 433.199219 329.972656 432.800781 330.167969 C 432.402344 330.367188 432.023438 330.601562 431.671875 330.875 C 431.316406 331.144531 430.992188 331.449219 430.699219 331.785156 C 430.40625 332.117188 430.148438 332.480469 429.921875 332.863281 C 427.664062 336.238281 425.136719 339.398438 422.339844 342.34375 C 419.539062 345.285156 416.511719 347.96875 413.253906 350.394531 C 409.996094 352.816406 406.558594 354.949219 402.9375 356.785156 C 399.3125 358.621094 395.5625 360.136719 391.679688 361.328125 C 398.757812 343.234375 404.621094 324.753906 409.269531 305.890625 C 413.914062 287.023438 417.308594 267.933594 419.445312 248.625 C 419.484375 248.175781 419.480469 247.730469 419.433594 247.28125 C 419.382812 246.835938 419.292969 246.398438 419.15625 245.96875 C 419.023438 245.539062 418.847656 245.128906 418.632812 244.734375 C 418.417969 244.339844 418.167969 243.972656 417.878906 243.625 C 417.589844 243.28125 417.269531 242.96875 416.921875 242.6875 C 416.570312 242.40625 416.199219 242.160156 415.800781 241.949219 C 415.402344 241.742188 414.988281 241.574219 414.554688 241.449219 C 414.125 241.320312 413.6875 241.238281 413.238281 241.199219 C 412.792969 241.15625 412.34375 241.160156 411.898438 241.207031 C 411.449219 241.257812 411.011719 241.347656 410.582031 241.480469 C 410.15625 241.613281 409.742188 241.789062 409.347656 242.003906 C 408.953125 242.21875 408.585938 242.46875 408.238281 242.757812 C 407.894531 243.042969 407.582031 243.363281 407.296875 243.710938 C 407.015625 244.0625 406.769531 244.433594 406.5625 244.832031 C 406.351562 245.230469 406.183594 245.644531 406.054688 246.074219 C 405.929688 246.507812 405.84375 246.945312 405.804688 247.394531 C 403.890625 264.097656 400.949219 280.617188 396.980469 296.953125 C 394.875 292.023438 392.171875 287.441406 388.878906 283.210938 C 385.582031 278.980469 381.804688 275.238281 377.539062 271.988281 C 377.167969 271.730469 376.777344 271.515625 376.363281 271.335938 C 375.953125 271.160156 375.523438 271.023438 375.085938 270.929688 C 374.644531 270.835938 374.203125 270.785156 373.753906 270.777344 C 373.300781 270.769531 372.855469 270.808594 372.414062 270.890625 C 371.972656 270.96875 371.542969 271.09375 371.125 271.261719 C 370.707031 271.425781 370.308594 271.628906 369.929688 271.875 C 369.554688 272.117188 369.203125 272.398438 368.882812 272.710938 C 368.558594 273.023438 368.269531 273.363281 368.015625 273.734375 C 367.757812 274.105469 367.542969 274.496094 367.363281 274.910156 C 367.183594 275.320312 367.046875 275.746094 366.953125 276.1875 C 366.859375 276.625 366.808594 277.070312 366.800781 277.519531 C 366.792969 277.96875 366.832031 278.417969 366.914062 278.859375 C 366.992188 279.300781 367.117188 279.730469 367.28125 280.148438 C 367.449219 280.566406 367.652344 280.964844 367.894531 281.34375 C 368.140625 281.71875 368.417969 282.070312 368.730469 282.394531 C 369.042969 282.714844 369.386719 283.003906 369.753906 283.261719 C 371.566406 284.703125 373.269531 286.269531 374.859375 287.953125 C 376.449219 289.640625 377.910156 291.429688 379.25 293.320312 C 380.585938 295.214844 381.78125 297.191406 382.835938 299.253906 C 383.890625 301.316406 384.796875 303.441406 385.550781 305.632812 C 386.300781 307.824219 386.898438 310.058594 387.335938 312.332031 C 387.769531 314.609375 388.042969 316.902344 388.15625 319.21875 C 388.265625 321.53125 388.210938 323.84375 387.996094 326.148438 C 387.777344 328.457031 387.398438 330.734375 386.859375 332.988281 C 378.914062 357.925781 368.144531 381.582031 354.554688 403.949219 C 352.453125 395.453125 351.238281 386.828125 350.910156 378.078125 C 350.582031 369.332031 351.148438 360.640625 352.609375 352.007812 C 352.695312 351.566406 352.738281 351.121094 352.734375 350.671875 C 352.734375 350.222656 352.6875 349.777344 352.597656 349.335938 C 352.507812 348.894531 352.378906 348.46875 352.203125 348.054688 C 352.03125 347.640625 351.816406 347.246094 351.566406 346.875 C 351.316406 346.5 351.03125 346.15625 350.710938 345.839844 C 350.390625 345.523438 350.042969 345.242188 349.667969 344.992188 C 349.292969 344.746094 348.898438 344.535156 348.484375 344.363281 C 348.066406 344.195312 347.636719 344.066406 347.195312 343.980469 C 346.753906 343.894531 346.308594 343.851562 345.859375 343.855469 C 345.410156 343.855469 344.964844 343.902344 344.527344 343.992188 C 344.085938 344.082031 343.65625 344.214844 343.242188 344.386719 C 342.828125 344.5625 342.433594 344.773438 342.0625 345.023438 C 341.691406 345.277344 341.34375 345.5625 341.027344 345.878906 C 340.710938 346.199219 340.429688 346.546875 340.179688 346.921875 C 339.933594 347.296875 339.722656 347.691406 339.554688 348.109375 C 339.382812 348.523438 339.253906 348.953125 339.167969 349.394531 C 338.851562 351.042969 331.859375 388.324219 345.164062 417.957031 C 340.464844 424.820312 335.257812 431.28125 329.542969 437.332031 C 323.832031 443.382812 317.683594 448.953125 311.101562 454.042969 C 304.515625 459.132812 297.578125 463.679688 290.28125 467.683594 C 282.984375 471.6875 275.421875 475.097656 267.59375 477.917969 C 266.804688 470.574219 270.671875 464.839844 277.335938 457.660156 C 285.167969 450.085938 291.871094 441.621094 297.445312 432.261719 C 301.464844 422.328125 287.902344 417.921875 284.109375 427.921875 C 277.011719 440.65625 254.292969 457.242188 253.875 473.253906 C 253.789062 474.074219 253.75 474.894531 253.75 475.71875 C 253.75 476.542969 253.789062 477.367188 253.871094 478.1875 C 253.953125 479.007812 254.074219 479.824219 254.234375 480.628906 C 254.398438 481.4375 254.601562 482.238281 254.839844 483.027344 C 255.082031 483.8125 255.363281 484.589844 255.683594 485.347656 C 256 486.109375 256.359375 486.851562 256.75 487.578125 C 257.144531 488.300781 257.570312 489.003906 258.035156 489.6875 C 258.496094 490.371094 258.992188 491.027344 259.519531 491.660156 C 260.050781 492.292969 260.605469 492.898438 261.195312 493.476562 C 261.785156 494.054688 262.398438 494.601562 263.042969 495.117188 C 263.6875 495.632812 264.351562 496.113281 265.042969 496.566406 C 265.734375 497.015625 266.445312 497.429688 267.179688 497.808594 C 267.910156 498.1875 268.660156 498.527344 269.425781 498.832031 C 270.195312 499.136719 270.972656 499.402344 271.765625 499.628906 C 272.558594 499.855469 273.359375 500.042969 274.171875 500.1875 C 274.984375 500.335938 275.800781 500.441406 276.621094 500.507812 C 278.652344 500.789062 280.683594 501.023438 282.726562 501.207031 C 284.765625 501.394531 286.808594 501.53125 288.855469 501.625 C 290.898438 501.714844 292.949219 501.757812 294.996094 501.753906 C 297.042969 501.746094 299.089844 501.695312 301.136719 501.59375 C 303.183594 501.496094 305.226562 501.347656 307.265625 501.152344 C 309.304688 500.957031 311.335938 500.714844 313.363281 500.425781 C 315.390625 500.132812 317.410156 499.796875 319.425781 499.414062 C 321.4375 499.027344 323.4375 498.597656 325.429688 498.121094 C 327.421875 497.640625 329.402344 497.117188 331.367188 496.550781 C 333.335938 495.980469 335.289062 495.363281 337.226562 494.703125 C 339.167969 494.042969 341.089844 493.335938 342.996094 492.585938 C 344.902344 491.835938 346.789062 491.042969 348.65625 490.203125 C 350.527344 489.363281 352.375 488.484375 354.203125 487.558594 C 356.03125 486.632812 357.835938 485.667969 359.617188 484.660156 C 361.402344 483.648438 363.160156 482.601562 364.894531 481.507812 C 366.625 480.417969 368.335938 479.289062 370.015625 478.117188 C 371.695312 476.949219 373.347656 475.738281 374.972656 474.492188 C 376.597656 473.242188 378.195312 471.960938 379.757812 470.636719 C 381.324219 469.316406 382.855469 467.957031 384.359375 466.566406 C 385.859375 465.171875 387.328125 463.746094 388.761719 462.285156 C 390.199219 460.820312 391.597656 459.328125 392.964844 457.800781 C 394.328125 456.273438 395.660156 454.714844 396.953125 453.128906 C 398.242188 451.539062 399.5 449.921875 400.714844 448.273438 C 401.933594 446.625 403.113281 444.953125 404.25 443.25 C 405.390625 441.546875 406.488281 439.820312 407.550781 438.066406 C 408.609375 436.3125 409.625 434.535156 410.601562 432.734375 C 411.578125 430.933594 412.511719 429.109375 413.402344 427.265625 C 414.292969 425.421875 415.140625 423.558594 415.945312 421.671875 C 416.746094 419.789062 417.507812 417.886719 418.222656 415.96875 C 418.9375 414.050781 419.609375 412.113281 420.234375 410.164062 C 420.859375 408.214844 421.4375 406.25 421.972656 404.273438 C 422.507812 402.292969 422.992188 400.304688 423.433594 398.304688 C 445.308594 396.214844 460.101562 388.679688 467.449219 375.878906 C 476.242188 360.566406 471.367188 342.511719 468.078125 333.851562 C 485.605469 318.519531 494.183594 302.3125 493.59375 285.609375 Z M 493.59375 285.609375 " fill-opacity="1" fill-rule="nonzero"/></g><path fill="#4ea601" d="M 200.039062 380.003906 C 200.140625 379.585938 200.199219 379.15625 200.222656 378.722656 C 200.242188 378.292969 200.222656 377.859375 200.160156 377.429688 C 200.101562 377.003906 200 376.582031 199.859375 376.171875 C 199.71875 375.761719 199.539062 375.371094 199.324219 374.992188 C 199.109375 374.617188 198.859375 374.265625 198.578125 373.933594 C 198.296875 373.605469 197.984375 373.308594 197.648438 373.039062 C 197.308594 372.765625 196.945312 372.53125 196.5625 372.332031 C 196.179688 372.128906 195.777344 371.964844 195.363281 371.839844 C 172.5 364.925781 158.734375 355.003906 154.433594 342.324219 C 153.78125 339.652344 153.417969 336.945312 153.34375 334.195312 C 153.265625 331.445312 153.480469 328.71875 153.980469 326.015625 C 154.484375 323.3125 155.261719 320.691406 156.320312 318.15625 C 157.378906 315.617188 158.691406 313.21875 160.257812 310.957031 C 160.6875 310.367188 161.015625 309.726562 161.242188 309.03125 C 161.46875 308.335938 161.578125 307.621094 161.574219 306.890625 C 161.570312 306.160156 161.457031 305.445312 161.222656 304.753906 C 160.992188 304.058594 160.660156 303.421875 160.222656 302.832031 C 139.386719 276.402344 132.683594 244.429688 155.429688 231.660156 C 161.335938 228.71875 158.8125 222.84375 157.160156 218.144531 C 156.632812 216.296875 156.242188 214.421875 155.992188 212.515625 C 155.738281 210.613281 155.625 208.699219 155.652344 206.777344 C 155.683594 204.855469 155.851562 202.945312 156.160156 201.050781 C 156.464844 199.152344 156.910156 197.289062 157.492188 195.457031 C 158.074219 193.625 158.785156 191.847656 159.628906 190.121094 C 160.46875 188.394531 161.433594 186.738281 162.519531 185.152344 C 163.605469 183.566406 164.800781 182.066406 166.105469 180.65625 C 167.410156 179.246094 168.8125 177.9375 170.308594 176.734375 C 186.75 161.085938 220.953125 166.207031 224.644531 186.355469 C 224.714844 187.09375 224.898438 187.804688 225.199219 188.480469 C 225.5 189.160156 225.902344 189.773438 226.402344 190.320312 C 226.902344 190.867188 227.476562 191.320312 228.125 191.683594 C 228.769531 192.042969 229.460938 192.292969 230.1875 192.429688 C 282.179688 201.28125 285.8125 235.894531 271.605469 264.640625 C 271.304688 265.210938 271.085938 265.816406 270.957031 266.449219 C 270.824219 267.085938 270.78125 267.726562 270.832031 268.371094 C 270.878906 269.019531 271.015625 269.644531 271.242188 270.25 C 271.46875 270.859375 271.773438 271.421875 272.15625 271.945312 C 272.542969 272.464844 272.992188 272.925781 273.503906 273.320312 C 274.019531 273.714844 274.578125 274.03125 275.179688 274.265625 C 275.785156 274.503906 276.40625 274.652344 277.050781 274.714844 C 277.699219 274.777344 278.339844 274.746094 278.976562 274.628906 C 281.039062 274.027344 283.144531 273.65625 285.289062 273.519531 C 287.4375 273.382812 289.570312 273.480469 291.695312 273.816406 C 293.820312 274.148438 295.882812 274.710938 297.882812 275.5 C 299.882812 276.289062 301.773438 277.289062 303.550781 278.492188 C 301.53125 280.289062 299.714844 282.273438 298.105469 284.445312 C 280.820312 307.789062 291.539062 346.6875 292.007812 348.332031 C 293.253906 350.1875 294.386719 352.109375 295.402344 354.101562 C 296.417969 356.09375 297.308594 358.140625 298.078125 360.238281 C 298.84375 362.339844 299.484375 364.476562 299.992188 366.652344 C 300.503906 368.832031 300.878906 371.03125 301.121094 373.253906 C 301.367188 375.476562 301.476562 377.703125 301.449219 379.941406 C 301.421875 382.175781 301.261719 384.402344 300.96875 386.617188 C 300.675781 388.835938 300.246094 391.023438 299.6875 393.1875 C 299.128906 395.355469 298.441406 397.476562 297.625 399.558594 C 297.488281 399.988281 297.390625 400.421875 297.339844 400.871094 C 297.289062 401.316406 297.28125 401.765625 297.320312 402.210938 C 297.355469 402.660156 297.4375 403.101562 297.558594 403.535156 C 297.683594 403.964844 297.847656 404.382812 298.054688 404.78125 C 298.257812 405.179688 298.503906 405.558594 298.78125 405.910156 C 299.0625 406.261719 299.371094 406.582031 299.714844 406.875 C 300.058594 407.164062 300.425781 407.417969 300.820312 407.636719 C 301.210938 407.855469 301.625 408.035156 302.050781 408.171875 C 302.480469 408.308594 302.917969 408.402344 303.363281 408.453125 C 303.808594 408.503906 304.257812 408.511719 304.707031 408.476562 C 305.152344 408.4375 305.59375 408.359375 306.027344 408.234375 C 306.457031 408.113281 306.875 407.945312 307.273438 407.742188 C 307.675781 407.535156 308.050781 407.292969 308.402344 407.011719 C 308.753906 406.734375 309.074219 406.421875 309.367188 406.078125 C 309.65625 405.738281 309.914062 405.367188 310.128906 404.976562 C 310.347656 404.582031 310.527344 404.171875 310.664062 403.742188 C 317.972656 380.941406 315.972656 360.167969 304.898438 343.5625 C 302.230469 333.300781 298.433594 307.011719 309.113281 292.589844 C 310.65625 290.695312 312.402344 289.011719 314.351562 287.535156 C 316.300781 286.058594 318.398438 284.835938 320.640625 283.863281 C 322.882812 282.890625 325.210938 282.199219 327.617188 281.785156 C 330.027344 281.371094 332.453125 281.246094 334.890625 281.414062 C 335.394531 281.40625 335.894531 281.339844 336.386719 281.21875 C 336.875 281.097656 337.347656 280.925781 337.800781 280.699219 C 338.253906 280.472656 338.675781 280.203125 339.066406 279.882812 C 339.460938 279.566406 339.8125 279.207031 340.125 278.808594 C 340.4375 278.414062 340.703125 277.984375 340.921875 277.53125 C 341.140625 277.074219 341.304688 276.601562 341.417969 276.105469 C 341.535156 275.613281 341.589844 275.117188 341.59375 274.609375 C 341.597656 274.105469 341.542969 273.605469 341.4375 273.109375 C 341.375 272.816406 335.203125 243.496094 350.34375 224.128906 C 358.902344 213.171875 373.011719 207.332031 392.261719 206.777344 C 392.949219 206.757812 393.613281 206.636719 394.261719 206.417969 C 394.910156 206.195312 395.511719 205.886719 396.066406 205.484375 C 396.621094 205.085938 397.105469 204.613281 397.519531 204.066406 C 397.933594 203.519531 398.257812 202.925781 398.496094 202.285156 C 398.582031 202.042969 407.457031 178.445312 429.039062 178.226562 C 430.328125 178.265625 431.609375 178.382812 432.878906 178.582031 C 434.152344 178.78125 435.40625 179.058594 436.644531 179.417969 C 437.882812 179.773438 439.09375 180.203125 440.277344 180.710938 C 441.460938 181.21875 442.609375 181.800781 443.71875 182.453125 C 444.832031 183.101562 445.898438 183.820312 446.917969 184.605469 C 447.941406 185.390625 448.910156 186.234375 449.824219 187.140625 C 450.738281 188.046875 451.59375 189.007812 452.390625 190.019531 C 453.183594 191.035156 453.914062 192.09375 454.578125 193.195312 C 454.875 193.582031 455.207031 193.933594 455.574219 194.25 C 455.945312 194.570312 456.34375 194.84375 456.769531 195.078125 C 457.199219 195.308594 457.644531 195.496094 458.109375 195.636719 C 458.578125 195.773438 459.050781 195.863281 459.539062 195.90625 C 460.023438 195.945312 460.507812 195.933594 460.988281 195.871094 C 461.472656 195.8125 461.941406 195.699219 462.402344 195.539062 C 462.863281 195.378906 463.300781 195.171875 463.714844 194.921875 C 464.132812 194.667969 464.519531 194.375 464.871094 194.042969 C 465.226562 193.710938 465.542969 193.34375 465.824219 192.945312 C 466.101562 192.546875 466.335938 192.121094 466.523438 191.675781 C 466.714844 191.226562 466.855469 190.761719 466.945312 190.285156 C 467.039062 189.808594 467.082031 189.324219 467.070312 188.839844 C 467.0625 188.351562 467.003906 187.871094 466.894531 187.398438 C 466.785156 186.921875 466.628906 186.464844 466.421875 186.023438 C 466.21875 185.582031 465.96875 185.167969 465.675781 184.777344 C 465.382812 184.390625 465.054688 184.035156 464.6875 183.714844 C 439.300781 149.761719 399.40625 165.859375 387.53125 193.296875 C 366.171875 194.75 350.050781 202.269531 339.550781 215.691406 C 325.703125 233.410156 325.75 256.472656 326.925781 268.316406 C 323.140625 268.867188 319.472656 269.839844 315.914062 271.242188 C 314.136719 269.390625 312.183594 267.746094 310.0625 266.304688 C 307.941406 264.863281 305.691406 263.660156 303.316406 262.6875 C 300.941406 261.71875 298.492188 261.003906 295.96875 260.546875 C 293.445312 260.089844 290.902344 259.898438 288.335938 259.972656 C 301.582031 222.707031 283.40625 188.839844 237.054688 179.859375 C 228.484375 151.695312 183.644531 145.328125 161.527344 166.222656 C 159.496094 167.871094 157.59375 169.65625 155.824219 171.585938 C 154.058594 173.515625 152.441406 175.5625 150.976562 177.730469 C 149.511719 179.902344 148.214844 182.164062 147.089844 184.527344 C 145.960938 186.886719 145.015625 189.320312 144.25 191.820312 C 143.480469 194.324219 142.90625 196.867188 142.515625 199.457031 C 142.128906 202.042969 141.933594 204.644531 141.933594 207.261719 C 141.929688 209.878906 142.121094 212.480469 142.507812 215.070312 C 142.890625 217.65625 143.464844 220.203125 144.230469 222.707031 C 142.289062 224.179688 140.492188 225.8125 138.828125 227.59375 C 137.167969 229.375 135.667969 231.285156 134.335938 233.324219 C 133 235.363281 131.84375 237.5 130.875 239.734375 C 129.902344 241.96875 129.128906 244.269531 128.550781 246.636719 C 124.34375 263.976562 130.382812 284.34375 146.496094 307.21875 C 144.753906 310.152344 143.324219 313.234375 142.210938 316.460938 C 141.097656 319.6875 140.324219 322.992188 139.886719 326.378906 C 139.453125 329.761719 139.363281 333.15625 139.621094 336.558594 C 139.878906 339.964844 140.480469 343.304688 141.421875 346.585938 C 146.777344 362.585938 161.757812 374.890625 185.960938 383.195312 C 185.347656 396.769531 189.03125 430.183594 231.464844 468.847656 C 231.796875 469.148438 232.15625 469.414062 232.542969 469.644531 C 232.925781 469.878906 233.332031 470.070312 233.753906 470.21875 C 234.175781 470.371094 234.609375 470.480469 235.054688 470.546875 C 235.5 470.613281 235.945312 470.636719 236.394531 470.617188 C 236.839844 470.59375 237.285156 470.53125 237.71875 470.421875 C 238.15625 470.3125 238.578125 470.164062 238.984375 469.972656 C 239.390625 469.78125 239.773438 469.550781 240.132812 469.285156 C 240.496094 469.019531 240.828125 468.71875 241.128906 468.386719 C 241.433594 468.054688 241.699219 467.699219 241.933594 467.3125 C 242.164062 466.929688 242.355469 466.527344 242.507812 466.101562 C 242.664062 465.679688 242.773438 465.246094 242.839844 464.804688 C 242.90625 464.359375 242.929688 463.914062 242.910156 463.464844 C 242.890625 463.015625 242.828125 462.574219 242.71875 462.136719 C 242.613281 461.703125 242.464844 461.28125 242.273438 460.875 C 242.082031 460.464844 241.855469 460.082031 241.589844 459.71875 C 241.324219 459.359375 241.023438 459.027344 240.695312 458.722656 C 192.875 415.164062 199.734375 381.363281 200.039062 380.003906 Z M 200.039062 380.003906 " fill-opacity="1" fill-rule="nonzero"/><path fill="#4ea601" d="M 275.773438 321.023438 C 275.433594 320.726562 275.066406 320.46875 274.675781 320.246094 C 274.289062 320.023438 273.878906 319.839844 273.453125 319.695312 C 273.027344 319.554688 272.589844 319.453125 272.144531 319.398438 C 271.699219 319.339844 271.253906 319.328125 270.804688 319.355469 C 270.355469 319.386719 269.914062 319.460938 269.480469 319.578125 C 269.046875 319.695312 268.628906 319.855469 268.226562 320.054688 C 267.824219 320.253906 267.445312 320.492188 267.085938 320.765625 C 266.730469 321.039062 266.40625 321.34375 266.109375 321.683594 C 262.734375 325.804688 259.777344 330.210938 257.238281 334.898438 C 254.703125 339.582031 252.632812 344.46875 251.027344 349.546875 C 249.421875 354.628906 248.308594 359.816406 247.695312 365.109375 C 247.078125 370.402344 246.96875 375.707031 247.367188 381.023438 C 217.375 318.882812 218.671875 238.144531 218.695312 237.195312 C 218.695312 236.75 218.65625 236.308594 218.574219 235.871094 C 218.488281 235.433594 218.363281 235.007812 218.199219 234.597656 C 218.03125 234.183594 217.828125 233.789062 217.582031 233.417969 C 217.339844 233.042969 217.0625 232.699219 216.753906 232.378906 C 216.441406 232.058594 216.105469 231.773438 215.738281 231.519531 C 215.371094 231.265625 214.984375 231.050781 214.574219 230.875 C 214.167969 230.695312 213.746094 230.558594 213.3125 230.464844 C 212.875 230.367188 212.4375 230.316406 211.992188 230.308594 C 211.546875 230.296875 211.105469 230.332031 210.664062 230.40625 C 210.226562 230.484375 209.800781 230.601562 209.382812 230.761719 C 208.96875 230.921875 208.570312 231.121094 208.195312 231.359375 C 207.820312 231.59375 207.46875 231.867188 207.144531 232.171875 C 206.820312 232.476562 206.527344 232.8125 206.269531 233.175781 C 206.011719 233.535156 205.789062 233.921875 205.605469 234.324219 C 205.421875 234.730469 205.277344 235.152344 205.175781 235.585938 C 205.074219 236.019531 205.015625 236.457031 205 236.902344 C 204.898438 241.640625 203.074219 353.773438 255.144531 419.570312 C 255.394531 419.886719 255.671875 420.179688 255.972656 420.445312 C 256.273438 420.714844 256.597656 420.953125 256.941406 421.164062 C 257.289062 421.375 257.648438 421.550781 258.023438 421.699219 C 258.398438 421.84375 258.785156 421.957031 259.179688 422.035156 C 259.578125 422.113281 259.976562 422.15625 260.378906 422.164062 C 260.785156 422.171875 261.183594 422.144531 261.582031 422.082031 C 261.980469 422.019531 262.371094 421.921875 262.753906 421.789062 C 263.132812 421.65625 263.5 421.492188 263.851562 421.292969 C 264.207031 421.097656 264.539062 420.871094 264.851562 420.617188 C 265.164062 420.359375 265.449219 420.078125 265.710938 419.773438 C 265.976562 419.464844 266.207031 419.140625 266.414062 418.789062 C 266.617188 418.441406 266.789062 418.082031 266.929688 417.703125 C 267.070312 417.324219 267.175781 416.9375 267.25 416.539062 C 267.320312 416.140625 267.359375 415.742188 267.359375 415.339844 C 267.359375 414.933594 267.328125 414.535156 267.257812 414.136719 C 267.1875 413.738281 267.082031 413.351562 266.945312 412.972656 C 266.765625 412.464844 248.9375 362.207031 276.433594 330.683594 C 276.730469 330.34375 276.988281 329.980469 277.210938 329.589844 C 277.433594 329.199219 277.617188 328.792969 277.761719 328.367188 C 277.902344 327.9375 278.003906 327.503906 278.0625 327.058594 C 278.117188 326.613281 278.132812 326.164062 278.101562 325.714844 C 278.070312 325.265625 277.996094 324.824219 277.878906 324.390625 C 277.761719 323.957031 277.601562 323.539062 277.402344 323.136719 C 277.203125 322.734375 276.964844 322.355469 276.691406 322 C 276.417969 321.644531 276.109375 321.316406 275.773438 321.023438 Z M 275.773438 321.023438 " fill-opacity="1" fill-rule="nonzero"/><path fill="#4ea601" d="M 244.820312 175.484375 C 245.214844 175.695312 245.628906 175.867188 246.058594 176 C 246.488281 176.132812 246.925781 176.21875 247.375 176.265625 C 247.820312 176.3125 248.269531 176.3125 248.714844 176.269531 C 249.164062 176.226562 249.601562 176.140625 250.035156 176.011719 C 250.464844 175.882812 250.878906 175.710938 251.273438 175.5 C 251.671875 175.289062 252.046875 175.042969 252.394531 174.757812 C 252.742188 174.472656 253.058594 174.15625 253.34375 173.808594 C 253.632812 173.460938 253.878906 173.089844 254.09375 172.695312 C 256.246094 168.683594 262.203125 161.730469 278.378906 162.261719 C 278.667969 162.265625 278.957031 162.246094 279.242188 162.210938 C 279.527344 162.175781 279.8125 162.121094 280.089844 162.050781 C 280.371094 161.980469 280.644531 161.890625 280.910156 161.785156 C 281.179688 161.679688 281.441406 161.558594 281.695312 161.421875 C 281.949219 161.28125 282.191406 161.128906 282.425781 160.960938 C 282.660156 160.792969 282.882812 160.609375 283.09375 160.414062 C 283.304688 160.21875 283.503906 160.007812 283.6875 159.789062 C 283.875 159.566406 284.042969 159.335938 284.199219 159.089844 C 284.355469 158.847656 284.496094 158.597656 284.621094 158.339844 C 284.746094 158.078125 284.855469 157.8125 284.945312 157.539062 C 285.035156 157.265625 285.109375 156.984375 285.167969 156.703125 C 285.222656 156.421875 285.261719 156.136719 285.28125 155.847656 C 285.304688 155.558594 285.304688 155.273438 285.292969 154.984375 C 285.277344 154.695312 285.242188 154.410156 285.191406 154.125 C 285.140625 153.84375 285.074219 153.5625 284.988281 153.289062 C 284.902344 153.011719 284.796875 152.742188 284.679688 152.480469 C 276.816406 133.457031 307.675781 129.050781 321.1875 132.394531 C 333.199219 134.433594 342.175781 141.433594 337.511719 152.480469 C 337.390625 152.742188 337.289062 153.011719 337.203125 153.289062 C 337.117188 153.5625 337.046875 153.84375 336.996094 154.125 C 336.945312 154.410156 336.914062 154.695312 336.898438 154.984375 C 336.882812 155.273438 336.886719 155.558594 336.90625 155.847656 C 336.925781 156.136719 336.964844 156.421875 337.023438 156.703125 C 337.078125 156.984375 337.152344 157.265625 337.246094 157.539062 C 337.335938 157.8125 337.445312 158.078125 337.570312 158.339844 C 337.691406 158.597656 337.832031 158.847656 337.988281 159.09375 C 338.144531 159.335938 338.316406 159.566406 338.5 159.789062 C 338.6875 160.007812 338.886719 160.21875 339.097656 160.414062 C 339.308594 160.609375 339.53125 160.792969 339.765625 160.960938 C 340 161.128906 340.242188 161.28125 340.496094 161.421875 C 340.75 161.558594 341.007812 161.679688 341.277344 161.785156 C 341.546875 161.890625 341.820312 161.980469 342.101562 162.050781 C 342.378906 162.121094 342.660156 162.175781 342.949219 162.210938 C 343.234375 162.246094 343.523438 162.261719 343.808594 162.261719 C 364.964844 161.703125 368.691406 173.5625 369 174.773438 C 369.097656 175.207031 369.238281 175.628906 369.417969 176.035156 C 369.597656 176.445312 369.816406 176.828125 370.074219 177.195312 C 370.328125 177.558594 370.617188 177.894531 370.941406 178.203125 C 371.261719 178.511719 371.609375 178.785156 371.984375 179.023438 C 372.359375 179.265625 372.753906 179.464844 373.167969 179.628906 C 373.585938 179.792969 374.011719 179.914062 374.449219 179.992188 C 374.886719 180.074219 375.328125 180.109375 375.773438 180.105469 C 376.21875 180.097656 376.660156 180.050781 377.09375 179.957031 C 377.53125 179.863281 377.953125 179.730469 378.363281 179.554688 C 378.773438 179.382812 379.164062 179.167969 379.53125 178.917969 C 379.898438 178.667969 380.238281 178.382812 380.550781 178.066406 C 380.863281 177.75 381.144531 177.40625 381.390625 177.035156 C 381.636719 176.664062 381.84375 176.269531 382.011719 175.859375 C 382.183594 175.449219 382.308594 175.023438 382.394531 174.585938 C 382.484375 174.148438 382.527344 173.707031 382.527344 173.261719 C 382.527344 172.816406 382.484375 172.375 382.398438 171.9375 C 382.210938 171.050781 377.890625 152.140625 352.28125 149.003906 C 352.511719 146.675781 352.417969 144.355469 351.996094 142.054688 C 351.578125 139.75 350.851562 137.550781 349.816406 135.449219 C 336.011719 108.082031 266.585938 111.894531 269.902344 149.011719 C 252.449219 150.371094 233.234375 167.765625 244.820312 175.484375 Z M 244.820312 175.484375 " fill-opacity="1" fill-rule="nonzero"/><path fill="#4ea601" d="M 318.441406 147.058594 C 318.042969 146.847656 317.632812 146.679688 317.199219 146.546875 C 316.769531 146.417969 316.332031 146.332031 315.886719 146.289062 C 315.4375 146.25 314.992188 146.25 314.546875 146.292969 C 314.097656 146.339844 313.660156 146.429688 313.230469 146.558594 C 312.800781 146.691406 312.390625 146.863281 311.996094 147.074219 C 311.597656 147.289062 311.226562 147.535156 310.882812 147.820312 C 310.535156 148.105469 310.21875 148.421875 309.9375 148.769531 C 309.652344 149.117188 309.402344 149.488281 309.191406 149.886719 C 308.355469 151.457031 288.863281 188.84375 303.644531 227.652344 C 303.90625 228.347656 304.273438 228.980469 304.742188 229.550781 C 305.210938 230.125 305.757812 230.609375 306.382812 231.007812 C 307.007812 231.402344 307.683594 231.6875 308.402344 231.867188 C 309.121094 232.042969 309.847656 232.105469 310.585938 232.046875 C 311.324219 231.988281 312.035156 231.8125 312.71875 231.523438 C 313.398438 231.234375 314.019531 230.84375 314.574219 230.355469 C 315.128906 229.863281 315.59375 229.300781 315.964844 228.660156 C 316.335938 228.019531 316.597656 227.335938 316.75 226.609375 C 319.410156 213.804688 328.164062 190.554688 337.101562 192.152344 C 337.542969 192.226562 337.984375 192.253906 338.429688 192.242188 C 338.875 192.226562 339.316406 192.167969 339.75 192.070312 C 340.183594 191.96875 340.601562 191.828125 341.007812 191.644531 C 341.417969 191.464844 341.800781 191.246094 342.164062 190.988281 C 342.527344 190.730469 342.863281 190.441406 343.171875 190.117188 C 343.476562 189.796875 343.75 189.445312 343.992188 189.070312 C 344.230469 188.695312 344.429688 188.300781 344.59375 187.886719 C 344.753906 187.46875 344.875 187.042969 344.953125 186.605469 C 345.03125 186.167969 345.066406 185.726562 345.058594 185.28125 C 345.050781 184.835938 345 184.394531 344.910156 183.957031 C 344.816406 183.523438 344.679688 183.101562 344.503906 182.691406 C 344.328125 182.28125 344.113281 181.894531 343.863281 181.527344 C 343.613281 181.160156 343.328125 180.820312 343.007812 180.507812 C 342.691406 180.195312 342.347656 179.917969 341.976562 179.671875 C 341.601562 179.429688 341.210938 179.222656 340.796875 179.054688 C 340.386719 178.886719 339.960938 178.757812 339.523438 178.671875 C 326.578125 176.386719 317.644531 187.023438 311.894531 198.632812 C 311.84375 191.316406 312.613281 184.082031 314.199219 176.9375 C 315.785156 169.792969 318.148438 162.917969 321.289062 156.304688 C 321.5 155.910156 321.667969 155.496094 321.796875 155.0625 C 321.921875 154.632812 322.007812 154.195312 322.050781 153.746094 C 322.089844 153.300781 322.089844 152.855469 322.042969 152.40625 C 321.996094 151.960938 321.90625 151.523438 321.777344 151.09375 C 321.644531 150.664062 321.472656 150.25 321.257812 149.855469 C 321.042969 149.460938 320.792969 149.089844 320.507812 148.746094 C 320.222656 148.398438 319.90625 148.082031 319.558594 147.800781 C 319.210938 147.515625 318.835938 147.269531 318.441406 147.058594 Z M 318.441406 147.058594 " fill-opacity="1" fill-rule="nonzero"/></svg>